<?xml version="1.0" encoding="UTF-8"?>
<svg version="1.1" xmlns="http://www.w3.org/2000/svg" width="1123" height="265">
<path d="M0 0 C6.43206731 5.11641718 11.80956244 11.10192005 17.3203125 17.16308594 C20.20787854 20.32094159 23.13722418 23.43961906 26.0625 26.5625 C31.12827282 31.97963201 36.1525947 37.43166243 41.15625 42.90625 C44.41364794 46.45977503 47.70707554 49.97942534 51 53.5 C56.11621777 58.97068374 61.20347288 64.46528988 66.24609375 70.00390625 C68.25497178 72.20284315 70.29442486 74.3697803 72.34765625 76.52734375 C73.18272705 77.41172119 73.18272705 77.41172119 74.03466797 78.31396484 C75.11489765 79.45674254 76.2009463 80.59405508 77.29345703 81.72509766 C81 85.6633766 81 85.6633766 81 89 C79.70925507 90.81757959 78.34122733 92.58068949 76.9375 94.3125 C64.38078346 110.42239435 59.66201095 128.73354215 61 149 C63.58203218 168.23309009 71.72729865 183.91669042 86 197 C86.12955078 195.72769531 86.12955078 195.72769531 86.26171875 194.4296875 C88.44004824 176.24363399 96.47750998 161.48768782 105.97949219 146.11157227 C109.89397582 139.72409887 112.21455574 134.52317052 111 127 C109.60120404 123.50057317 107.90046286 120.25114896 106 117 C119.23831691 112.5872277 137.4974432 115.36883819 149.78125 121.35546875 C159.27682072 126.689577 167.57086285 133.82049158 172 144 C171.65752949 148.74464359 169.42149382 152.01625211 167 156 C164.17791607 155.08472954 161.39600955 154.17467088 158.6796875 152.9765625 C150.34503969 149.46854656 141.27954052 148.20721515 132.44140625 150.73046875 C125.17140034 154.09748472 119.79780849 160.3798255 116.91015625 167.80078125 C114.65505928 175.7274955 115.13836129 184.17165102 118.6171875 191.65234375 C123.32768329 199.64954141 129.2682406 204.80927552 138 208 C148.77691889 210.58646053 158.16768956 208.55158922 167.5625 202.8125 C184.45004974 191.38787071 194.94278673 175.40866887 199.26953125 155.44140625 C202.94273533 135.54525698 198.6406913 116.0458133 188 99 C185.89294117 96.2117647 183.74310604 93.58044736 181.37109375 91.015625 C180 89 180 89 180.02734375 87 C181.31234841 84.35774142 182.9876432 82.76418709 185.125 80.75 C188.68669458 77.37316846 191.92207016 73.83387643 195.13037109 70.12792969 C198.24539529 66.58254566 201.50142938 63.17262945 204.75 59.75 C210.33716671 53.83886504 215.88005431 47.89449954 221.36328125 41.88671875 C224.21100606 38.76898744 227.07214711 35.66401848 229.9375 32.5625 C230.43668945 32.02206055 230.93587891 31.48162109 231.45019531 30.92480469 C232.46136553 29.83018522 233.47259617 28.73562157 234.48388672 27.64111328 C236.99014104 24.92822414 239.49500475 22.21405168 242 19.5 C242.98436823 18.4335875 243.96874325 17.36718127 244.953125 16.30078125 C245.44619141 15.76662598 245.93925781 15.2324707 246.44726562 14.68212891 C250.96484375 9.78808594 255.48242188 4.89404297 260 0 C260.33 0.66 260.66 1.32 261 2 C260.13891602 4.02099609 260.13891602 4.02099609 258.75390625 6.5234375 C257.99775024 7.9168335 257.99775024 7.9168335 257.22631836 9.33837891 C256.6772583 10.34046387 256.12819824 11.34254883 255.5625 12.375 C239.3497713 42.4342178 239.3497713 42.4342178 238.7265625 75.5859375 C240.99727543 80.55196821 244.21756735 83.49015282 249.015625 86.09375 C253.44093418 87.43756116 257.71752307 87.20943067 262.3125 87.125 C263.24384766 87.11597656 264.17519531 87.10695313 265.13476562 87.09765625 C267.4234436 87.07418263 269.71158672 87.04134729 272 87 C270.82318302 90.53045093 269.8260914 91.10920827 266.875 93.25 C252.79280059 103.92305936 242.11499959 119.37865195 239 137 C236.93567726 152.09035924 239.00642286 165.22139762 244.9140625 179.328125 C245.82143272 181.56064742 246.49652074 183.65043011 247 186 C246.154375 186.6290625 245.30875 187.258125 244.4375 187.90625 C227.51289074 200.61470217 212.90845172 216.48421996 209.30078125 238.203125 C208.62873383 244.45229319 208.29592018 250.72337716 208 257 C205.15221224 256.07550078 202.33986298 255.1398793 199.5703125 254 C181.63605601 246.66586316 163.86796302 248.43168092 146.23046875 255.5625 C142.94131328 256.91741446 142.94131328 256.91741446 140 259 C128.64356935 260.36664181 119.86937603 258.94898757 109.74609375 253.7265625 C102.30245167 250.04880719 94.49639566 249.61136017 86.3125 249.625 C85.35150391 249.62588623 84.39050781 249.62677246 83.40039062 249.62768555 C74.15892286 249.78031542 66.07510282 251.44414894 57.75 255.63671875 C55 257 55 257 53 257 C52.97421875 255.94683594 52.9484375 254.89367187 52.921875 253.80859375 C52.09302023 229.98875386 43.43772094 211.84085806 26.38671875 195.1171875 C22.52363068 191.69035651 18.32576399 188.8085858 14 186 C14.39832031 185.01902344 14.79664062 184.03804687 15.20703125 183.02734375 C23.25925865 162.72172682 25.84495849 143.86898268 17.875 122.9375 C11.75454632 109.23934177 1.69082612 97.04557498 -11 89 C-10.505 88.01 -10.505 88.01 -10 87 C-8.74445312 87.05800781 -7.48890625 87.11601563 -6.1953125 87.17578125 C7.22492781 87.79711372 7.22492781 87.79711372 19 82 C24.54767195 75.10743788 23.802796 65.40235817 23 57 C20.11289936 39.52341745 11.51286669 23.40108816 3.1496582 8.01586914 C2.7393335 7.25781982 2.32900879 6.49977051 1.90625 5.71875 C1.53822266 5.04779297 1.17019531 4.37683594 0.79101562 3.68554688 C0 2 0 2 0 0 Z " fill="#24CAFF" transform="translate(17,6)"/>
<path d="M0 0 C13.24125 -0.061875 26.4825 -0.12375 40.125 -0.1875 C44.27852051 -0.21481201 48.43204102 -0.24212402 52.71142578 -0.27026367 C57.85327148 -0.28381348 57.85327148 -0.28381348 60.27389526 -0.28633118 C61.93497136 -0.29088451 63.59603866 -0.30132222 65.25704956 -0.31672668 C80.54629477 -0.45121316 94.91353608 -0.26443933 106.7734375 10.62890625 C112.38528649 16.52819141 114.13045506 22.98096386 114.375 31 C114.1232037 39.25682035 112.22726809 45.50705046 106.5625 51.625 C104.5493034 53.39661301 102.58387157 54.316034 100 55 C100 55.66 100 56.32 100 57 C100.70125 57.226875 101.4025 57.45375 102.125 57.6875 C109.22028592 60.92665227 112.5906211 65.50425976 115.859375 72.48046875 C118.75084397 81.40243293 118.2826179 91.47921971 114.18359375 99.9609375 C109.74922105 107.60035185 103.48667054 112.26521977 95.08834839 114.92060852 C84.75086345 117.29944088 74.8171234 117.38846734 64.2578125 117.29296875 C62.60408839 117.28854485 60.95036004 117.28549238 59.29663086 117.28381348 C53.23935552 117.26823594 47.18217076 117.226353 41.125 117.1875 C27.55375 117.125625 13.9825 117.06375 0 117 C0 78.39 0 39.78 0 0 Z M26 23 C26 30.92 26 38.84 26 47 C32.81394349 47.06908617 39.62665843 47.12875718 46.44067383 47.16479492 C48.75582002 47.17982729 51.070938 47.2002587 53.38598633 47.22631836 C56.72484324 47.26294596 60.0633217 47.27978241 63.40234375 47.29296875 C64.42770737 47.30845261 65.45307098 47.32393646 66.50950623 47.33988953 C73.81072788 47.34157712 80.40066845 46.51953208 86.5 42.25 C88.60412115 39.09381828 88.93481332 36.78082726 89 33 C87.72815244 29.3257737 86.68671486 27.51063413 83.5625 25.1875 C79.57064758 23.33761717 76.25268664 22.87561216 71.86425781 22.88647461 C70.33312347 22.88658791 70.33312347 22.88658791 68.77105713 22.88670349 C67.12868073 22.89444542 67.12868073 22.89444542 65.453125 22.90234375 C63.76361725 22.90446617 63.76361725 22.90446617 62.03997803 22.90663147 C58.44329165 22.91222801 54.84666756 22.9247799 51.25 22.9375 C48.81119882 22.94251545 46.37239666 22.94707828 43.93359375 22.95117188 C37.95568587 22.96134531 31.97791265 22.98092156 26 23 Z M26 68 C26 76.58 26 85.16 26 94 C33.24116613 94.06906093 40.48117844 94.12874018 47.72241211 94.16479492 C50.18306359 94.1798334 52.64368849 94.20026942 55.10424805 94.22631836 C58.65159692 94.26291856 62.19858977 94.27977635 65.74609375 94.29296875 C66.8370787 94.30845261 67.92806366 94.32393646 69.05210876 94.33988953 C76.5671794 94.34152627 83.53684005 93.78742142 89.5625 88.9375 C91.6853875 84.59942555 91.74135787 80.73688658 91 76 C89.11178315 72.14146991 87.01217846 70.80507176 83.10571289 69.3894043 C77.32937109 67.55240898 71.75946551 67.62168618 65.74609375 67.70703125 C64.60463394 67.71127609 63.46317413 67.71552094 62.28712463 67.71989441 C58.6703349 67.73657849 55.05411902 67.77421234 51.4375 67.8125 C48.97331538 67.82756008 46.50912197 67.84124616 44.04492188 67.85351562 C38.02955331 67.88388605 32.01541287 67.94262941 26 68 Z " fill="#FFFFFF" transform="translate(351,93)"/>
<path d="M0 0 C34.98 0 69.96 0 106 0 C106 7.92 106 15.84 106 24 C79.6 24 53.2 24 26 24 C26 30.93 26 37.86 26 45 C28.2061499 44.99476318 30.4122998 44.98952637 32.68530273 44.98413086 C39.95761098 44.96759404 47.22992005 44.95652841 54.50224209 44.94818783 C58.91337004 44.94295931 63.3244788 44.93586223 67.7355957 44.92456055 C71.98901115 44.91373056 76.24240809 44.90772293 80.49583626 44.90512276 C82.12221633 44.90326871 83.74859534 44.89964848 85.37496758 44.89426994 C87.64510193 44.88705802 89.91515885 44.88600912 92.18530273 44.88647461 C94.12722755 44.88314369 94.12722755 44.88314369 96.10838318 44.87974548 C99 45 99 45 100 46 C100 53.59 100 61.18 100 69 C75.58 69 51.16 69 26 69 C26 76.92 26 84.84 26 93 C52.4 93 78.8 93 106 93 C106 100.92 106 108.84 106 117 C71.02 117 36.04 117 0 117 C0 78.39 0 39.78 0 0 Z " fill="#FFFFFF" transform="translate(1017,93)"/>
<path d="M0 0 C10.35129224 0.20727293 10.35129224 0.20727293 13.69775391 2.90185547 C15.90511591 5.75135915 17.54339271 8.61490703 19.22119141 11.80029297 C20.671432 13.51043331 22.17258589 15.17868921 23.72119141 16.80029297 C26.74401562 20.12018783 29.64631302 23.49793409 32.47119141 26.98779297 C37.68637656 33.4274129 43.13450892 39.654847 48.57470703 45.90380859 C53.15294966 51.17720551 57.68038838 56.49472312 62.22119141 61.80029297 C66.18119141 66.42029297 70.14119141 71.04029297 74.22119141 75.80029297 C74.55119141 51.05029297 74.88119141 26.30029297 75.22119141 0.80029297 C83.80119141 0.80029297 92.38119141 0.80029297 101.22119141 0.80029297 C101.22119141 39.41029297 101.22119141 78.02029297 101.22119141 117.80029297 C77.22119141 117.80029297 77.22119141 117.80029297 71.78369141 113.48779297 C70.54583994 111.62444544 69.35845632 109.72668047 68.22119141 107.80029297 C66.74880062 105.94471314 65.24804024 104.11132686 63.72119141 102.30029297 C62.97869141 101.38248047 62.23619141 100.46466797 61.47119141 99.51904297 C59.28617571 96.87881567 57.0294775 94.33299577 54.72119141 91.80029297 C51.6983672 88.4803981 48.79606979 85.10265185 45.97119141 81.61279297 C41.29926612 75.84398087 36.44285858 70.2493635 31.56884766 64.65185547 C27.83456686 60.36269899 24.1354362 56.04386536 20.44262695 51.71899414 C16.73498369 47.38228718 12.97923994 43.09520557 9.22119141 38.80029297 C8.89119141 64.87029297 8.56119141 90.94029297 8.22119141 117.80029297 C-0.35880859 117.80029297 -8.93880859 117.80029297 -17.77880859 117.80029297 C-17.80135621 102.69304322 -17.81978811 87.58580204 -17.83062077 72.47853947 C-17.83578357 65.46444663 -17.84282598 58.45036496 -17.85424805 51.4362793 C-17.86525547 44.67361229 -17.87108479 37.91095932 -17.87368584 31.148283 C-17.87554063 28.56177016 -17.87916226 25.97525799 -17.88453865 23.38875008 C-17.8917451 19.77990442 -17.8927997 16.1711075 -17.89233398 12.56225586 C-17.89592926 11.48116547 -17.89952454 10.40007507 -17.90322876 9.28622437 C-17.9018541 8.30880783 -17.90047943 7.3313913 -17.89906311 6.32435608 C-17.8999849 5.46985398 -17.9009067 4.61535189 -17.90185642 3.73495579 C-17.53536761 -2.02729358 -4.30838509 0.05734122 0 0 Z " fill="#FFFFFF" transform="translate(891.77880859375,92.19970703125)"/>
<path d="M0 0 C9.9 0 19.8 0 30 0 C35.84863056 11.65047208 41.60957883 23.34010635 47.3125 35.0625 C47.7299649 35.92015961 48.14742981 36.77781921 48.57754517 37.66146851 C54.58884663 50.01321224 60.591023 62.36879156 66.47314453 74.78271484 C67.64311236 77.24799083 68.81616698 79.71169497 69.99169922 82.17431641 C71.83950227 86.04586278 73.68107657 89.9203254 75.51919556 93.79647827 C76.25021283 95.33580073 76.9830718 96.87425007 77.71786499 98.41177368 C78.74692254 100.56630493 79.76878127 102.72411423 80.7890625 104.8828125 C81.09891586 105.52761063 81.40876923 106.17240875 81.72801208 106.83674622 C83.36903606 110.32951022 84.22892456 113.14462282 85 117 C75.76 117 66.52 117 57 117 C55.39125 113.968125 53.7825 110.93625 52.125 107.8125 C51.6211377 106.86608643 51.11727539 105.91967285 50.59814453 104.94458008 C49.99655518 103.80605591 49.99655518 103.80605591 49.3828125 102.64453125 C48.97434082 101.87471924 48.56586914 101.10490723 48.14501953 100.31176758 C46.96743943 97.93426097 45.98535711 95.46339277 45 93 C14.805 92.505 14.805 92.505 -16 92 C-16.66 93.98 -17.32 95.96 -18 98 C-18.69211156 99.5937497 -19.41287137 101.17541744 -20.1640625 102.7421875 C-20.5245166 103.49870605 -20.8849707 104.25522461 -21.25634766 105.03466797 C-21.70800293 105.97197754 -22.1596582 106.90928711 -22.625 107.875 C-24.06875 110.88625 -25.5125 113.8975 -27 117 C-36.57 117 -46.14 117 -56 117 C-51.50040664 105.75101659 -51.50040664 105.75101659 -49.70092773 102.09887695 C-49.09333366 100.85866539 -49.09333366 100.85866539 -48.47346497 99.59339905 C-48.04780746 98.73371017 -47.62214996 97.8740213 -47.18359375 96.98828125 C-46.73074509 96.065952 -46.27789642 95.14362274 -45.81132507 94.19334412 C-44.85097759 92.23819505 -43.889037 90.28382778 -42.92559814 88.3302002 C-40.41838318 83.24584261 -37.92294885 78.15570388 -35.42578125 73.06640625 C-34.94143616 72.08014252 -34.45709106 71.09387878 -33.95806885 70.07772827 C-30.64114061 63.32012293 -27.35563782 56.54935808 -24.125 49.75 C-19.62822588 40.29059889 -15.07022902 30.8615729 -10.5 21.4375 C-10.14762268 20.71050903 -9.79524536 19.98351807 -9.43218994 19.23449707 C-8.4240208 17.15479727 -7.41526387 15.07538383 -6.40625 12.99609375 C-5.95697647 12.06950203 -5.95697647 12.06950203 -5.49862671 11.12419128 C-3.6911476 7.40250324 -1.85050359 3.70100719 0 0 Z M14 29 C11.42899475 34.21076818 8.8657163 39.42523703 6.30957031 44.64331055 C5.43864675 46.41844241 4.56560899 48.19253861 3.69042969 49.96557617 C2.43389479 52.51212506 1.18497364 55.06228381 -0.0625 57.61328125 C-0.45622803 58.40712723 -0.84995605 59.20097321 -1.25561523 60.01887512 C-1.61598877 60.75941635 -1.9763623 61.49995758 -2.34765625 62.26293945 C-2.66742432 62.91357864 -2.98719238 63.56421783 -3.31665039 64.23457336 C-4.18048755 66.15077677 -4.18048755 66.15077677 -4 69 C8.54 69 21.08 69 34 69 C29.82475216 59.45657637 25.66736154 49.95820396 21.1875 40.5625 C20.71119141 39.54607422 20.23488281 38.52964844 19.74414062 37.48242188 C19.28587891 36.52013672 18.82761719 35.55785156 18.35546875 34.56640625 C17.94965576 33.70990479 17.54384277 32.85340332 17.12573242 31.97094727 C16.15352369 29.84556739 16.15352369 29.84556739 14 29 Z " fill="#FFFFFF" transform="translate(777,93)"/>
<path d="M0 0 C1.084021 0.00523682 2.16804199 0.01047363 3.28491211 0.01586914 C5.03964844 0.02070312 5.03964844 0.02070312 6.82983398 0.02563477 C8.67738281 0.03820312 8.67738281 0.03820312 10.56225586 0.05102539 C12.41560547 0.05779297 12.41560547 0.05779297 14.30639648 0.06469727 C17.37089703 0.07652931 20.43530307 0.09301366 23.49975586 0.11352539 C23.50855522 1.31383392 23.50855522 1.31383392 23.51753235 2.53839111 C23.57575393 10.12838614 23.64799543 17.71806386 23.73547077 25.30777359 C23.77994797 29.20849743 23.81925186 33.10912226 23.84619141 37.01000977 C23.87245315 40.78387767 23.91301101 44.55735975 23.96294212 48.33098602 C23.97945799 49.7612193 23.99106635 51.19151906 23.99736977 52.6218338 C24.0530942 64.11804106 24.39642934 77.08889043 32.49975586 86.11352539 C40.9911217 93.10326022 50.89614872 93.91512784 61.54321289 93.31762695 C68.03554572 92.64036338 75.105763 90.02445859 79.49975586 85.11352539 C83.64683006 78.0279529 85.60566874 72.46241123 85.68920898 64.24951172 C85.69750229 63.56778397 85.70579559 62.88605621 85.71434021 62.18367004 C85.73169435 60.70828846 85.74687368 59.23288004 85.76011658 57.75745583 C85.78118757 55.42544577 85.80820322 53.09357169 85.83679199 50.76164246 C85.90653188 44.97395615 85.96614121 39.18617378 86.02581787 33.39837646 C86.07666913 28.50065356 86.13144663 23.60300637 86.19163513 18.70538902 C86.21828021 16.40255835 86.23904622 14.09972081 86.25964355 11.79682922 C86.27623766 10.39433448 86.29310871 8.99184298 86.31030273 7.58935547 C86.32909485 5.74546989 86.32909485 5.74546989 86.3482666 3.86433411 C86.49975586 1.11352539 86.49975586 1.11352539 87.49975586 0.11352539 C89.42643093 0.02604332 91.35627447 0.00655205 93.28491211 0.01586914 C94.45473633 0.0190918 95.62456055 0.02231445 96.82983398 0.02563477 C98.0615332 0.03401367 99.29323242 0.04239258 100.56225586 0.05102539 C102.41560547 0.05779297 102.41560547 0.05779297 104.30639648 0.06469727 C107.37089703 0.07652931 110.43530307 0.09301366 113.49975586 0.11352539 C113.56960597 9.55464107 113.62274345 18.99566627 113.65519238 28.43698502 C113.67077489 32.82209727 113.6918757 37.2070313 113.72607422 41.59204102 C113.75893469 45.83255488 113.77666446 50.0728985 113.78438759 54.31352997 C113.78988363 55.92246933 113.80061446 57.53140055 113.81694603 59.14026642 C113.97255334 75.12118 111.72200794 91.36263465 100.23413086 103.53149414 C87.42098907 115.21915726 72.7461713 118.29359751 55.93725586 118.36352539 C54.11871094 118.39446289 54.11871094 118.39446289 52.26342773 118.42602539 C36.48765029 118.49369629 22.08012968 114.32894108 10.46459961 103.23852539 C-3.27756188 88.37622748 -3.83583383 68.81241101 -3.73071289 49.58618164 C-3.72951602 48.17654971 -3.729069 46.76691696 -3.72932434 45.35728455 C-3.727781 42.4440288 -3.71964754 39.53089973 -3.70605469 36.61767578 C-3.68882838 32.87853505 -3.68524821 29.13952924 -3.68599987 25.40035343 C-3.68572906 22.50856737 -3.6802661 19.61681096 -3.67299843 16.72503471 C-3.66981608 15.34427552 -3.66784536 13.96351298 -3.66710472 12.58275032 C-3.66495 10.67120272 -3.65542579 8.75966762 -3.64550781 6.84814453 C-3.64169601 5.7616713 -3.63788422 4.67519806 -3.63395691 3.55580139 C-3.45184289 0.22947209 -3.33365708 0.15136711 0 0 Z " fill="#FFFFFF" transform="translate(486.500244140625,92.886474609375)"/>
<path d="M0 0 C40.59 0 81.18 0 123 0 C123 7.92 123 15.84 123 24 C107.16 24 91.32 24 75 24 C75 54.69 75 85.38 75 117 C66.09 117 57.18 117 48 117 C48 86.31 48 55.62 48 24 C32.16 24 16.32 24 0 24 C0 16.08 0 8.16 0 0 Z " fill="#FFFFFF" transform="translate(613,93)"/>
</svg>
