<?xml version="1.0" encoding="UTF-8"?>
<svg version="1.1" xmlns="http://www.w3.org/2000/svg" width="420" height="147">
<path d="M0 0 C7.30289654 5.594206 12.50563923 12.77545042 14.625 21.8125 C15.81725633 33.67423393 14.48604463 43.84811108 7.3125 53.6875 C0.81303142 61.43154767 -7.25935125 65.80093513 -17.375 66.8125 C-23.48050963 67.0497073 -29.33481438 66.70734231 -35.375 65.8125 C-35.375 65.1525 -35.375 64.4925 -35.375 63.8125 C-36.10847656 63.709375 -36.84195313 63.60625 -37.59765625 63.5 C-44.0332226 61.90694841 -49.02391569 56.73392906 -52.75 51.4375 C-58.85131257 41.31948999 -59.88220489 30.65476867 -57.90625 19.0625 C-55.49518439 10.79598935 -49.51516208 3.5306071 -42.375 -1.1875 C-28.70490667 -7.89398779 -13.10101165 -8.61598064 0 0 Z M-36.72265625 17.3515625 C-40.26518246 22.70979211 -40.91809208 28.9413902 -40.0390625 35.20703125 C-38.37101418 41.56511153 -34.62836514 45.06487646 -29.375 48.8125 C-24.79915054 51.10042473 -18.83268795 50.28905183 -14.125 48.75 C-8.68502901 44.91729316 -4.81213853 40.59021633 -3.55859375 33.921875 C-3.09559104 28.60226945 -3.58985895 24.3246235 -6.0625 19.5625 C-9.82524583 15.08788334 -13.50984647 11.29306971 -19.57421875 10.5390625 C-26.83046976 10.24288899 -31.84875776 11.78542916 -36.72265625 17.3515625 Z " fill="#0F192A" transform="translate(258.375,46.1875)"/>
<path d="M0 0 C9.76203521 -0.4865323 19.62970257 2.21302424 27.16015625 8.5703125 C27.72347656 9.10527344 28.28679687 9.64023437 28.8671875 10.19140625 C29.69669922 10.97837891 29.69669922 10.97837891 30.54296875 11.78125 C37.44558714 19.06068627 39.99137118 28.3119046 39.8671875 38.19140625 C38.84521321 49.70040904 34.51179017 58.44513538 25.8671875 66.19140625 C21.72487431 68.83021317 17.84861852 71.19140625 12.8671875 71.19140625 C12.5371875 71.85140625 12.2071875 72.51140625 11.8671875 73.19140625 C-2.63906748 73.76318564 -13.84574229 71.93171883 -24.8203125 62.06640625 C-32.42852899 54.12739774 -34.47382264 43.93033371 -34.34375 33.31640625 C-33.72073088 24.08649329 -30.0336698 15.83377952 -23.28125 9.4375 C-16.29849072 3.88745826 -8.85214431 0.79442321 0 0 Z M-12.93359375 25.47265625 C-16.30782182 30.30868346 -15.6388906 36.57465211 -15.1328125 42.19140625 C-13.42954816 48.14796496 -10.12115861 51.68895047 -5.1328125 55.19140625 C-0.11329727 56.86457799 5.0626752 57.14241734 10.125 55.42578125 C16.01242175 52.24702122 18.84932068 47.45987216 20.8671875 41.19140625 C22.08574842 33.98549309 20.04748007 28.49943636 16.0546875 22.44140625 C12.08495657 18.35825443 8.48123483 17.01028476 2.8671875 16.81640625 C-4.5112762 17.09254636 -8.33506181 19.96890149 -12.93359375 25.47265625 Z " fill="#0F192A" transform="translate(313.1328125,39.80859375)"/>
<path d="M0 0 C0.99700928 0.00012085 0.99700928 0.00012085 2.01416016 0.00024414 C4.00687784 -0.00191404 5.99955661 -0.02033847 7.9921875 -0.0390625 C18.45354885 -0.05492907 27.62802251 0.37439039 36.04296875 7.18554688 C39.23031736 10.98980167 40.20122529 15.27080205 40.04296875 20.18554688 C38.93202603 25.30442912 36.98560818 29.84165057 34.04296875 34.18554688 C34.99171875 34.90742187 35.94046875 35.62929687 36.91796875 36.37304688 C39.8603124 38.61178661 40.96143088 40.64876426 42.04296875 44.18554688 C42.70591139 50.58251287 42.98979613 56.83823236 39.04296875 62.18554688 C32.32334714 69.21060583 25.22046854 70.95324413 15.60205078 71.31494141 C14.43013184 71.31606934 13.25821289 71.31719727 12.05078125 71.31835938 C10.12878906 71.32029297 10.12878906 71.32029297 8.16796875 71.32226562 C7.51183594 71.3201709 6.85570312 71.31807617 6.1796875 71.31591797 C4.15226962 71.31050496 2.12506785 71.3159147 0.09765625 71.32226562 C-1.1759375 71.32097656 -2.44953125 71.3196875 -3.76171875 71.31835938 C-4.92687012 71.31723145 -6.09202148 71.31610352 -7.29248047 71.31494141 C-9.95703125 71.18554688 -9.95703125 71.18554688 -10.95703125 70.18554688 C-11.05655418 68.04354364 -11.08502804 65.89821983 -11.08642578 63.75390625 C-11.0881781 63.08237015 -11.08993042 62.41083405 -11.09173584 61.71894836 C-11.09615355 59.4890386 -11.09321667 57.25920751 -11.08984375 55.02929688 C-11.09051681 53.48612452 -11.09148686 51.94295227 -11.09274292 50.39978027 C-11.09421978 47.16152947 -11.09206572 43.9233062 -11.08740234 40.68505859 C-11.08170505 36.52512165 -11.08498412 32.36524921 -11.09097481 28.20531464 C-11.09458074 25.0175528 -11.09344169 21.82980636 -11.09084702 18.64204407 C-11.09017783 17.10777275 -11.09100586 15.57350005 -11.09332657 14.03923035 C-11.09585363 11.89851147 -11.09201179 9.75789845 -11.08642578 7.6171875 C-11.08563019 6.39664673 -11.08483459 5.17610596 -11.08401489 3.9185791 C-10.80683761 -2.04702746 -4.77513621 0.02190429 0 0 Z M7.04296875 16.18554688 C7.04296875 19.81554687 7.04296875 23.44554688 7.04296875 27.18554688 C8.79609375 27.24742188 10.54921875 27.30929688 12.35546875 27.37304688 C13.34160156 27.40785156 14.32773438 27.44265625 15.34375 27.47851562 C18.04579728 27.40134153 18.04579728 27.40134153 19.91015625 25.90039062 C21.39411617 24.02284745 21.39411617 24.02284745 20.85546875 20.56054688 C20.45328125 18.88992187 20.45328125 18.88992187 20.04296875 17.18554688 C16.19151832 15.25982166 11.24253623 16.1367147 7.04296875 16.18554688 Z M7.04296875 42.18554688 C7.04296875 46.47554687 7.04296875 50.76554687 7.04296875 55.18554688 C9.10546875 55.26804687 11.16796875 55.35054687 13.29296875 55.43554688 C14.453125 55.48195313 15.61328125 55.52835938 16.80859375 55.57617188 C20.10471715 55.4476001 20.10471715 55.4476001 22.46875 53.39648438 C24.40124291 51.14559982 24.40124291 51.14559982 23.98046875 47.56054688 C23.36788425 43.93037763 23.36788425 43.93037763 20.04296875 42.18554688 C16.83917751 41.94307905 16.83917751 41.94307905 13.35546875 42.06054688 C11.27234375 42.10179687 9.18921875 42.14304688 7.04296875 42.18554688 Z " fill="#0F192A" transform="translate(150.95703125,40.814453125)"/>
<path d="M0 0 C5.94 0 11.88 0 18 0 C18.33 7.92 18.66 15.84 19 24 C20.65 21.89625 22.3 19.7925 24 17.625 C24.55365234 16.93728516 25.10730469 16.24957031 25.67773438 15.54101562 C27.95648423 12.7090796 30.00516835 9.99115249 31.84375 6.84375 C33.71534434 3.77151023 34.97132183 1.97754869 38 0 C44.27359665 -1.17769475 50.68783726 -0.57267605 57 0 C55.4404037 5.09075774 52.30260939 8.56461049 48.9375 12.5625 C47.76702882 13.98599302 46.59776726 15.41048149 45.4296875 16.8359375 C43.78239988 18.83785592 42.13399753 20.83867006 40.47753906 22.83300781 C39.15417433 24.4373924 37.85559171 26.05868925 36.5625 27.6875 C35.82128906 28.59886719 35.08007812 29.51023437 34.31640625 30.44921875 C32.67529775 32.90660709 32.67529775 32.90660709 33.70214844 35.36376953 C35.05212425 38.10587616 36.57219688 40.32059584 38.44921875 42.73046875 C39.13306641 43.61669922 39.81691406 44.50292969 40.52148438 45.41601562 C41.23626953 46.33060547 41.95105469 47.24519531 42.6875 48.1875 C58 67.89932808 58 67.89932808 58 71 C41.37029874 73.04542905 41.37029874 73.04542905 36.21630859 69.91748047 C33.17776438 67.01357467 31.12819962 63.48767288 29.08544922 59.84423828 C27.27341117 56.76548538 25.0577169 54.00830874 22.875 51.1875 C21.59625 49.475625 20.3175 47.76375 19 46 C18.67 54.25 18.34 62.5 18 71 C12.06 71 6.12 71 0 71 C0 47.57 0 24.14 0 0 Z " fill="#0F192A" transform="translate(361,41)"/>
<path d="M0 0 C4.34532495 1.7955423 7.64644593 4.46792147 11.265625 7.43359375 C12.86430709 8.71128322 14.46327382 9.98861661 16.0625 11.265625 C16.87912109 11.92385254 17.69574219 12.58208008 18.53710938 13.26025391 C22.49225304 16.42919979 26.50634954 19.52115158 30.515625 22.62109375 C47.87943097 36.10989972 47.87943097 36.10989972 50.015625 38.24609375 C50.203125 40.68359375 50.203125 40.68359375 50.015625 43.24609375 C48.015625 45.24609375 48.015625 45.24609375 45.42578125 45.76953125 C40.32474828 44.98655483 37.35465798 42.10902167 33.453125 38.87109375 C31.84658702 37.57913748 30.23981474 36.28747251 28.6328125 34.99609375 C27.84745117 34.35671875 27.06208984 33.71734375 26.25292969 33.05859375 C23.23291037 30.61199582 20.16418984 28.23347733 17.078125 25.87109375 C16.06492187 25.0925 15.05171875 24.31390625 14.0078125 23.51171875 C9.39482721 20.01885782 4.71702978 16.61904548 0.015625 13.24609375 C-2.66181927 14.5160697 -5.01761673 15.89711761 -7.3828125 17.6796875 C-8.33885376 18.39765503 -8.33885376 18.39765503 -9.31420898 19.13012695 C-9.98911377 19.642771 -10.66401855 20.15541504 -11.359375 20.68359375 C-12.06328369 21.2149292 -12.76719238 21.74626465 -13.49243164 22.29370117 C-18.17100131 25.83714935 -22.80911947 29.43001157 -27.421875 33.05859375 C-27.9979248 33.51008789 -28.57397461 33.96158203 -29.16748047 34.42675781 C-31.6933616 36.41268345 -34.18723776 38.41708233 -36.64453125 40.48828125 C-42.21605883 45.12036929 -42.21605883 45.12036929 -46.421875 45.80859375 C-48.984375 45.24609375 -48.984375 45.24609375 -50.984375 43.24609375 C-51.06144673 39.85493766 -50.96865088 37.34059444 -48.61962891 34.72851562 C-46.73788472 33.21045215 -44.80311932 31.84535476 -42.796875 30.49609375 C-41.32176736 29.44953471 -39.84782893 28.40132595 -38.375 27.3515625 C-37.63314453 26.83126465 -36.89128906 26.3109668 -36.12695312 25.77490234 C-33.0164828 23.55546693 -30.03245712 21.19181775 -27.046875 18.80859375 C-25.91311043 17.91882466 -24.77898823 17.0295111 -23.64453125 16.140625 C-20.92109304 13.99878964 -18.23021338 11.8198366 -15.54296875 9.6328125 C-14.02384288 8.42006495 -12.50431736 7.20781783 -10.984375 5.99609375 C-10.27804932 5.41029541 -9.57172363 4.82449707 -8.84399414 4.22094727 C-3.90309777 0.3218523 -3.90309777 0.3218523 0 0 Z " fill="#0F192A" transform="translate(51.984375,70.75390625)"/>
<path d="M0 0 C3.29674336 1.66029912 6.04332639 3.78720246 8.88671875 6.109375 C13.07019129 9.49176924 17.27687643 12.80797551 21.6171875 15.98828125 C22.44001221 16.60026367 23.26283691 17.21224609 24.1105957 17.84277344 C25.73244801 19.04690757 27.36495941 20.23683704 29.00854492 21.41113281 C34.54786982 25.57180003 34.54786982 25.57180003 35.33203125 29.65234375 C34.69921875 32.359375 34.69921875 32.359375 32.69921875 34.359375 C26.31346879 34.29653859 23.10468867 31.84185229 18.51171875 27.859375 C17.20575434 26.76924133 15.89844275 25.68071969 14.58984375 24.59375 C13.94208984 24.05041016 13.29433594 23.50707031 12.62695312 22.94726562 C9.74282263 20.57158366 6.76400499 18.33268228 3.76171875 16.109375 C2.78332031 15.38234375 1.80492187 14.6553125 0.796875 13.90625 C0.10464844 13.39578125 -0.58757813 12.8853125 -1.30078125 12.359375 C-6.91544948 15.22909432 -11.47900841 18.88078375 -16.32421875 22.8984375 C-19.39706445 25.43897922 -22.47567419 27.96192409 -25.61328125 30.421875 C-26.55816406 31.17597656 -27.50304688 31.93007812 -28.4765625 32.70703125 C-31.75390562 34.62448096 -33.56562036 34.94414631 -37.30078125 34.359375 C-39.30078125 31.359375 -39.30078125 31.359375 -39.2421875 28.95703125 C-37.96968421 25.44576699 -36.15456493 24.11655691 -33.23828125 21.796875 C-32.7167749 21.37776855 -32.19526855 20.95866211 -31.65795898 20.52685547 C-25.23098825 15.41034697 -18.61360804 10.531824 -12.00830078 5.64941406 C-10.48060032 4.49522915 -8.9948238 3.2860355 -7.515625 2.0703125 C-4.84322513 0.00591895 -3.33718649 -0.92919963 0 0 Z " fill="#0F192A" transform="translate(53.30078125,92.640625)"/>
<path d="M0 0 C2.31250854 1.49054055 4.33071502 2.95032642 6.4375 4.6875 C6.98470703 5.12255859 7.53191406 5.55761719 8.09570312 6.00585938 C9.19352925 6.88282107 10.28444964 7.76850011 11.36816406 8.6628418 C12.47549409 9.57020962 13.59801352 10.45929123 14.73339844 11.33129883 C16.21058576 12.48717828 17.61192851 13.73849407 19 15 C19.375 18.3125 19.375 18.3125 19 21 C17.02 21.99 15.04 22.98 13 24 C8.05 20.04 3.1 16.08 -2 12 C-6.35696556 14.89653242 -6.35696556 14.89653242 -10.59765625 17.95703125 C-11.41105469 18.56933594 -12.22445312 19.18164062 -13.0625 19.8125 C-13.87847656 20.43769531 -14.69445313 21.06289062 -15.53515625 21.70703125 C-18 23 -18 23 -20.68359375 22.88671875 C-23 22 -23 22 -25 19 C-25.1171875 16.69921875 -25.1171875 16.69921875 -24 14 C-21.57704695 11.653004 -18.87975082 9.75040732 -16.125 7.8125 C-15.39152344 7.27947266 -14.65804687 6.74644531 -13.90234375 6.19726562 C-4.406192 -0.67836337 -4.406192 -0.67836337 0 0 Z " fill="#0F192A" transform="translate(54,114)"/>
<path d="M0 0 C2.34144056 1.57911107 4.41684208 3.13032496 6.5625 4.9375 C7.78965306 5.93837302 9.0175357 6.93835209 10.24609375 7.9375 C10.86597168 8.44667969 11.48584961 8.95585938 12.12451172 9.48046875 C15.07210033 11.86862177 18.09922419 14.1498031 21.125 16.4375 C28.46342045 21.99164117 28.46342045 21.99164117 31 25 C30.75 28.25 30.75 28.25 30 31 C24.22174286 32.63816568 24.22174286 32.63816568 21.1640625 31.04101562 C19.19117949 29.52325047 17.34368788 27.92241758 15.5 26.25 C14.10609329 25.04183774 12.70887427 23.83748785 11.30859375 22.63671875 C10.6007373 22.02618652 9.89288086 21.4156543 9.16357422 20.78662109 C5.18986836 17.50524223 0.91562716 14.60732798 -3.390625 11.78027344 C-6.45589472 9.65161391 -7.86948632 8.42704075 -8.9765625 4.8046875 C-9 2 -9 2 -7.9375 0.0625 C-4.97195541 -1.56376639 -3.23181375 -0.85976993 0 0 Z " fill="#0F192A" transform="translate(71,63)"/>
<path d="M0 0 C1 1 1 1 1.5625 3.625 C0.66932067 8.98407601 -2.79433275 10.82822595 -7 14 C-7.60070312 14.45745605 -8.20140625 14.91491211 -8.8203125 15.38623047 C-12.85213639 18.45456703 -16.90198036 21.49719244 -20.98828125 24.49267578 C-22.38157947 25.53663491 -23.75293933 26.61027898 -25.10546875 27.70654297 C-25.79253906 28.25584473 -26.47960938 28.80514648 -27.1875 29.37109375 C-27.79980469 29.87439209 -28.41210938 30.37769043 -29.04296875 30.89624023 C-31.54376145 32.30667983 -33.17123321 32.34288959 -36 32 C-38 30 -38 30 -38.5625 27.2578125 C-37.71929984 22.37427826 -34.84417838 20.74111045 -31 17.875 C-30.28537598 17.32312012 -29.57075195 16.77124023 -28.83447266 16.20263672 C-27.3295593 15.04458072 -25.81848633 13.89449087 -24.30175781 12.75195312 C-22.03050499 11.02321848 -19.80594463 9.24700995 -17.5859375 7.453125 C-16.18324081 6.34255014 -14.77962749 5.23313183 -13.375 4.125 C-12.7253125 3.59503418 -12.075625 3.06506836 -11.40625 2.51904297 C-7.36401629 -0.5912546 -5.15186231 -1.74822955 0 0 Z " fill="#0F192A" transform="translate(39,63)"/>
<path d="M0 0 C5.10250742 0.20094263 7.75424236 1.97804038 11.5625 5.25 C12.47128906 6.01828125 13.38007812 6.7865625 14.31640625 7.578125 C16.98084254 9.98271088 19.58433926 12.34364843 22 15 C21.91985673 18.44616056 21.4443896 19.5556104 19 22 C13.89749258 21.79905737 11.24575764 20.02195962 7.4375 16.75 C6.52871094 15.98171875 5.61992188 15.2134375 4.68359375 14.421875 C2.01915746 12.01728912 -0.58433926 9.65635157 -3 7 C-2.91985673 3.55383944 -2.4443896 2.4443896 0 0 Z " fill="#0F192A" transform="translate(80,52)"/>
<path d="M0 0 C2.28515625 0.8359375 2.28515625 0.8359375 3.66015625 3.2109375 C4.28515625 5.8359375 4.28515625 5.8359375 3.28515625 8.8359375 C1.23519098 10.59635965 -0.80225652 12.22701046 -2.96484375 13.8359375 C-3.53847656 14.27421875 -4.11210937 14.7125 -4.703125 15.1640625 C-13.65292429 21.93247563 -13.65292429 21.93247563 -17.46484375 21.5859375 C-19.71484375 20.8359375 -19.71484375 20.8359375 -20.71484375 19.8359375 C-21.27734375 17.2109375 -21.27734375 17.2109375 -20.71484375 13.8359375 C-18.38807161 11.06536686 -15.6012945 8.99728951 -12.71484375 6.8359375 C-11.43673828 5.82853516 -11.43673828 5.82853516 -10.1328125 4.80078125 C-3.48731087 -0.21074397 -3.48731087 -0.21074397 0 0 Z " fill="#0F192A" transform="translate(21.71484375,52.1640625)"/>
<path d="M0 0 C2 2 2 2 2.25 5 C2 8 2 8 0 10 C-3.625 9.625 -3.625 9.625 -7 9 C-8.33157895 3.55263158 -8.33157895 3.55263158 -6.875 1.125 C-4.40522151 -0.3568671 -2.83386167 -0.3633156 0 0 Z " fill="#0E1829" transform="translate(54,22)"/>
<path d="M0 0 C2.4375 0.375 2.4375 0.375 4.4375 2.375 C4.6875 5.375 4.6875 5.375 4.4375 8.375 C3.7775 9.035 3.1175 9.695 2.4375 10.375 C-1.1875 10 -1.1875 10 -4.5625 9.375 C-5.48304342 6.36231243 -5.84111489 4.94770838 -4.4375 2.0625 C-2.5625 0.375 -2.5625 0.375 0 0 Z " fill="#0E1829" transform="translate(51.5625,134.625)"/>
<path d="M0 0 C2.3125 1.25 2.3125 1.25 3.3125 2.25 C3.5 4.6875 3.5 4.6875 3.3125 7.25 C1.3125 9.25 1.3125 9.25 -1.6875 9.5 C-4.6875 9.25 -4.6875 9.25 -6.6875 7.25 C-7.0625 4.8125 -7.0625 4.8125 -6.6875 2.25 C-4.33222347 -0.45420638 -3.50969299 -0.97944921 0 0 Z " fill="#0E182A" transform="translate(98.6875,42.75)"/>
<path d="M0 0 C2.375 1.375 2.375 1.375 3.3125 3.8125 C3.375 6.375 3.375 6.375 1.375 9.375 C-1.625 9.6875 -1.625 9.6875 -4.625 9.375 C-5.285 8.715 -5.945 8.055 -6.625 7.375 C-6.25 3.75 -6.25 3.75 -5.625 0.375 C-2.625 -0.625 -2.625 -0.625 0 0 Z " fill="#0E182A" transform="translate(7.625,42.625)"/>
<path d="M0 0 C2.375 1.375 2.375 1.375 3.3125 3.8125 C3.375 6.375 3.375 6.375 1.375 9.375 C-1.625 9.6875 -1.625 9.6875 -4.625 9.375 C-5.285 8.715 -5.945 8.055 -6.625 7.375 C-6.25 3.75 -6.25 3.75 -5.625 0.375 C-2.625 -0.625 -2.625 -0.625 0 0 Z " fill="#0E182A" transform="translate(77.625,26.625)"/>
<path d="M0 0 C2.3125 1.5 2.3125 1.5 3.25 3.9375 C3.3125 6.5 3.3125 6.5 1.3125 9.5 C-1.6875 9.8125 -1.6875 9.8125 -4.6875 9.5 C-6.6875 7.5 -6.6875 7.5 -7.0625 5.0625 C-6.6875 2.5 -6.6875 2.5 -5 0.5625 C-2.6875 -0.5 -2.6875 -0.5 0 0 Z " fill="#0F192A" transform="translate(28.6875,26.5)"/>
<path d="M0 0 C1.67542976 0.28604898 3.34385343 0.61781233 5 1 C5.625 2.875 5.625 2.875 6 5 C5.34 5.66 4.68 6.32 4 7 C1.375 6.625 1.375 6.625 -1 6 C-1.042721 4.33388095 -1.04063832 2.66617115 -1 1 C-0.67 0.67 -0.34 0.34 0 0 Z " fill="#0D1829" transform="translate(82,13)"/>
<path d="M0 0 C1.67542976 0.28604898 3.34385343 0.61781233 5 1 C5.625 2.875 5.625 2.875 6 5 C5.34 5.66 4.68 6.32 4 7 C1.375 6.625 1.375 6.625 -1 6 C-1.042721 4.33388095 -1.04063832 2.66617115 -1 1 C-0.67 0.67 -0.34 0.34 0 0 Z " fill="#0E1829" transform="translate(16,13)"/>
<path d="M0 0 C1.67542976 0.28604898 3.34385343 0.61781233 5 1 C5.625 2.875 5.625 2.875 6 5 C5.34 5.66 4.68 6.32 4 7 C1.375 6.625 1.375 6.625 -1 6 C-1.042721 4.33388095 -1.04063832 2.66617115 -1 1 C-0.67 0.67 -0.34 0.34 0 0 Z " fill="#0E1729" transform="translate(49,1)"/>
</svg>
